<svg xmlns="http://www.w3.org/2000/svg" xmlns:xlink="http://www.w3.org/1999/xlink" version="1.1" width="256" height="256" viewBox="0 0 256 256" xml:space="preserve">
<desc>Created with Fabric.js 1.7.22</desc>
<defs>
</defs>
<g transform="translate(128 128) scale(0.72 0.72)" style="">
	<g style="stroke: none; stroke-width: 0; stroke-dasharray: none; stroke-linecap: butt; stroke-linejoin: miter; stroke-miterlimit: 10; fill: none; fill-rule: nonzero; opacity: 1;" transform="translate(-175.05 -175.05) scale(3.89 3.89)" >
	<path d="M 8.651 18.156 l 2.523 2.523 c 0.226 0.226 0.573 0.277 0.855 0.126 l 3.024 -1.623 c 0.224 -0.12 0.494 -0.114 0.712 0.015 l 4.412 2.618 c 0.315 0.187 0.442 0.577 0.294 0.912 c -0.377 0.858 -1.063 2.431 -1.336 3.126 c -0.057 0.146 -0.143 0.28 -0.261 0.383 c -2.94 2.549 -8.791 -0.557 -13.269 -5.035 C 1.127 16.724 -1.978 10.873 0.57 7.933 c 0.103 -0.119 0.237 -0.204 0.383 -0.261 C 1.649 7.399 3.222 6.712 4.08 6.335 C 4.415 6.188 4.805 6.315 4.992 6.63 l 2.618 4.412 c 0.129 0.218 0.135 0.489 0.015 0.712 l -1.623 3.024 c -0.151 0.281 -0.1 0.629 0.126 0.855 L 8.651 18.156 z" style="stroke: none; stroke-width: 1; stroke-dasharray: none; stroke-linecap: butt; stroke-linejoin: miter; stroke-miterlimit: 10; fill: rgb(137,196,219); fill-rule: nonzero; opacity: 1;" transform=" matrix(2.8008 0 0 2.8008 1.9639999999999986 1.9639999999999702) " stroke-linecap="round" />
	<polygon points="35.55,11.98 35.55,39.61 49.17,39.61 49.17,49.41 62.28,39.61 89.01,39.61 89.01,11.98 " style="stroke: none; stroke-width: 1; stroke-dasharray: none; stroke-linecap: butt; stroke-linejoin: miter; stroke-miterlimit: 10; fill: rgb(214,223,88); fill-rule: nonzero; opacity: 1;" transform="  matrix(1 0 0 1 0 0) "/>
	<path d="M 16.231 27.504 c -3.294 0.001 -7.591 -2.762 -10.878 -6.05 C 0.973 17.075 -2.476 10.902 0.3 7.699 c 0.135 -0.156 0.311 -0.277 0.523 -0.36 c 0.688 -0.27 2.245 -0.949 3.113 -1.331 c 0.499 -0.218 1.085 -0.03 1.363 0.439 l 2.618 4.412 c 0.192 0.324 0.201 0.731 0.023 1.063 l -1.623 3.024 C 6.24 15.09 6.265 15.264 6.381 15.38 l 5.047 5.047 c 0.115 0.115 0.29 0.141 0.433 0.064 l 3.024 -1.623 c 0.333 -0.179 0.74 -0.17 1.064 0.023 l 4.412 2.618 c 0.469 0.278 0.658 0.864 0.439 1.363 c -0.382 0.868 -1.062 2.427 -1.331 3.113 c -0.082 0.211 -0.203 0.387 -0.36 0.522 C 18.31 27.199 17.326 27.504 16.231 27.504 z M 4.369 6.632 c -0.049 0 -0.099 0.01 -0.146 0.031 C 3.351 7.046 1.783 7.73 1.084 8.004 C 0.981 8.044 0.899 8.099 0.84 8.167 c -2.477 2.858 0.865 8.629 5.018 12.782 c 4.153 4.153 9.926 7.494 12.782 5.018 c 0.068 -0.059 0.122 -0.141 0.163 -0.243 c 0.273 -0.698 0.958 -2.267 1.342 -3.14 c 0.074 -0.169 0.01 -0.367 -0.15 -0.461 l -4.412 -2.618 c -0.11 -0.066 -0.248 -0.068 -0.361 -0.008 l -3.024 1.623 c -0.423 0.227 -0.937 0.152 -1.276 -0.188 l -5.047 -5.046 c -0.34 -0.34 -0.415 -0.853 -0.188 -1.276 l 1.623 -3.024 c 0.06 -0.113 0.057 -0.251 -0.008 -0.361 L 4.685 6.812 C 4.617 6.697 4.495 6.632 4.369 6.632 z" style="stroke: none; stroke-width: 1; stroke-dasharray: none; stroke-linecap: butt; stroke-linejoin: miter; stroke-miterlimit: 10; fill: rgb(0,0,0); fill-rule: nonzero; opacity: 1;" transform=" matrix(2.8008 0 0 2.8008 1.9639999999999986 1.9639999999999702) " stroke-linecap="round" />
	<path d="M 49.168 50.411 c -0.153 0 -0.307 -0.035 -0.448 -0.105 c -0.338 -0.17 -0.552 -0.516 -0.552 -0.895 v -8.802 H 35.554 c -0.552 0 -1 -0.448 -1 -1 V 11.98 c 0 -0.552 0.448 -1 1 -1 H 89.01 c 0.553 0 1 0.448 1 1 v 27.629 c 0 0.552 -0.447 1 -1 1 H 62.615 l -12.848 9.603 C 49.591 50.344 49.38 50.411 49.168 50.411 z M 36.555 38.609 h 12.613 c 0.553 0 1 0.448 1 1 v 7.806 l 11.515 -8.607 c 0.173 -0.129 0.383 -0.199 0.599 -0.199 H 88.01 V 12.981 H 36.555 V 38.609 z" style="stroke: none; stroke-width: 1; stroke-dasharray: none; stroke-linecap: butt; stroke-linejoin: miter; stroke-miterlimit: 10; fill: rgb(0,0,0); fill-rule: nonzero; opacity: 1;" transform=" matrix(1 0 0 1 0 0) " stroke-linecap="round" />
	<path d="M 48.626 32.057 h -5.516 c -0.374 0 -0.717 -0.209 -0.889 -0.542 c -0.171 -0.333 -0.143 -0.734 0.074 -1.038 l 5.032 -7.073 c 0.352 -0.495 0.401 -1.12 0.133 -1.672 c -0.123 -0.252 -0.497 -0.842 -1.321 -0.879 c -0.001 0 -0.003 0 -0.004 0 c -1.158 0 -2.025 0.869 -2.025 1.937 c 0 0.552 -0.448 1 -1 1 c -0.552 0 -1 -0.448 -1 -1 c 0 -2.172 1.768 -3.94 3.94 -3.94 l 0.179 0.004 c 1.316 0.06 2.448 0.807 3.03 2 c 0.586 1.202 0.471 2.623 -0.302 3.708 l -3.908 5.493 h 3.578 c 0.553 0 1 0.448 1 1 C 49.626 31.61 49.179 32.057 48.626 32.057 z" style="stroke: none; stroke-width: 1; stroke-dasharray: none; stroke-linecap: butt; stroke-linejoin: miter; stroke-miterlimit: 10; fill: rgb(0,0,0); fill-rule: nonzero; opacity: 1;" transform=" matrix(1 0 0 1 0 0) " stroke-linecap="round" />
	<path d="M 58.335 32.057 c -0.553 0 -1 -0.448 -1 -1 v -1.082 h -5.544 c -0.375 0 -0.719 -0.21 -0.89 -0.544 c -0.171 -0.334 -0.142 -0.735 0.077 -1.04 l 6.545 -9.124 c 0.254 -0.353 0.708 -0.501 1.118 -0.369 c 0.414 0.133 0.694 0.518 0.694 0.952 v 8.124 h 1.095 c 0.553 0 1 0.448 1 1 c 0 0.552 -0.447 1 -1 1 h -1.095 v 1.082 C 59.335 31.61 58.888 32.057 58.335 32.057 z M 53.739 27.974 h 3.596 v -5.013 L 53.739 27.974 z" style="stroke: none; stroke-width: 1; stroke-dasharray: none; stroke-linecap: butt; stroke-linejoin: miter; stroke-miterlimit: 10; fill: rgb(0,0,0); fill-rule: nonzero; opacity: 1;" transform=" matrix(1 0 0 1 0 0) " stroke-linecap="round" />
	<path d="M 76.791 32.057 c -0.172 0 -0.346 -0.044 -0.505 -0.138 c -0.477 -0.279 -0.636 -0.892 -0.357 -1.368 l 5.69 -9.7 h -4.827 c -0.553 0 -1 -0.448 -1 -1 s 0.447 -1 1 -1 h 6.574 c 0.358 0 0.69 0.192 0.868 0.503 c 0.178 0.311 0.176 0.694 -0.006 1.003 l -6.574 11.206 C 77.469 31.881 77.134 32.057 76.791 32.057 z" style="stroke: none; stroke-width: 1; stroke-dasharray: none; stroke-linecap: butt; stroke-linejoin: miter; stroke-miterlimit: 10; fill: rgb(0,0,0); fill-rule: nonzero; opacity: 1;" transform=" matrix(1 0 0 1 0 0) " stroke-linecap="round" />
	<path d="M 63.444 34.454 c -0.172 0 -0.346 -0.044 -0.505 -0.138 c -0.477 -0.279 -0.636 -0.892 -0.357 -1.368 l 9.385 -15.998 c 0.278 -0.476 0.892 -0.636 1.368 -0.357 c 0.477 0.279 0.636 0.892 0.357 1.368 l -9.385 15.998 C 64.122 34.277 63.787 34.454 63.444 34.454 z" style="stroke: none; stroke-width: 1; stroke-dasharray: none; stroke-linecap: butt; stroke-linejoin: miter; stroke-miterlimit: 10; fill: rgb(0,0,0); fill-rule: nonzero; opacity: 1;" transform=" matrix(1 0 0 1 0 0) " stroke-linecap="round" />
</g>
</g>
</svg>