<svg xmlns="http://www.w3.org/2000/svg" xmlns:xlink="http://www.w3.org/1999/xlink" version="1.1" width="256" height="256" viewBox="0 0 256 256" xml:space="preserve">
<desc>Created with Fabric.js 1.7.22</desc>
<defs>
</defs>
<g transform="translate(128 128) scale(0.72 0.72)" style="">
	<g style="stroke: none; stroke-width: 0; stroke-dasharray: none; stroke-linecap: butt; stroke-linejoin: miter; stroke-miterlimit: 10; fill: none; fill-rule: nonzero; opacity: 1;" transform="translate(-175.05 -175.05) scale(3.89 3.89)" >
	<path d="M 84.313 89 H 5.687 c -1.903 0 -3.445 -1.542 -3.445 -3.445 l 0 0 c 0 -1.903 1.542 -3.445 3.445 -3.445 h 78.627 c 1.903 0 3.445 1.542 3.445 3.445 l 0 0 C 87.758 87.457 86.216 89 84.313 89 z" style="stroke: none; stroke-width: 1; stroke-dasharray: none; stroke-linecap: butt; stroke-linejoin: miter; stroke-miterlimit: 10; fill: rgb(185,185,185); fill-rule: nonzero; opacity: 1;" transform=" matrix(1 0 0 1 0 0) " stroke-linecap="round" />
	<path d="M 75.487 53.89 H 13.652 c -3.675 0 -6.654 2.979 -6.654 6.654 V 82.11 h 75.144 V 60.544 C 82.141 56.869 79.162 53.89 75.487 53.89 z" style="stroke: none; stroke-width: 1; stroke-dasharray: none; stroke-linecap: butt; stroke-linejoin: miter; stroke-miterlimit: 10; fill: rgb(239,237,239); fill-rule: nonzero; opacity: 1;" transform=" matrix(1 0 0 1 0 0) " stroke-linecap="round" />
	<path d="M 38.503 25.669 h -8.041 c -3.675 0 -6.654 2.979 -6.654 6.654 V 53.89 h 42.386 V 32.324 c 0 -3.675 -2.979 -6.654 -6.654 -6.654 h -8.042" style="stroke: none; stroke-width: 1; stroke-dasharray: none; stroke-linecap: butt; stroke-linejoin: miter; stroke-miterlimit: 10; fill: rgb(239,237,239); fill-rule: nonzero; opacity: 1;" transform=" matrix(1 0 0 1 0 0) " stroke-linecap="round" />
	<path d="M 6.998 69.924 c 5.01 3.186 10.019 3.186 15.029 0 s 10.019 -3.186 15.029 0 c 5.01 3.186 10.019 3.186 15.029 0 s 10.019 -3.186 15.029 0 c 5.01 3.186 10.019 3.186 15.029 0 c 0 0 0 -9.38 0 -9.38 c 0 -3.675 -2.979 -6.654 -6.654 -6.654 H 13.652 c -3.675 0 -6.654 2.979 -6.654 6.654 C 6.998 60.544 6.998 69.924 6.998 69.924 z" style="stroke: none; stroke-width: 1; stroke-dasharray: none; stroke-linecap: butt; stroke-linejoin: miter; stroke-miterlimit: 10; fill: rgb(251,210,112); fill-rule: nonzero; opacity: 1;" transform=" matrix(1 0 0 1 0 0) " stroke-linecap="round" />
	<path d="M 66.193 40.985 v -8.662 c 0 -3.675 -2.979 -6.654 -6.654 -6.654 h -8.042 H 38.503 h -8.041 c -3.675 0 -6.654 2.979 -6.654 6.654 v 8.213 l -0.001 0 c 4.416 -2.144 8.833 -1.811 13.249 0.998 c 5.01 3.186 10.019 3.186 15.029 0 C 56.787 38.543 61.49 38.36 66.193 40.985 L 66.193 40.985 z" style="stroke: none; stroke-width: 1; stroke-dasharray: none; stroke-linecap: butt; stroke-linejoin: miter; stroke-miterlimit: 10; fill: rgb(251,210,112); fill-rule: nonzero; opacity: 1;" transform=" matrix(1 0 0 1 0 0) " stroke-linecap="round" />
	<path d="M 59.04 3.828 C 55.82 0.191 49.722 -0.26 45 4.384 C 40.278 -0.26 34.18 0.191 30.96 3.828 c -3.425 3.869 -1.986 11.091 2.523 16.862 c 2.285 2.925 7.931 7.689 11.518 9.69 c 3.586 -2 9.232 -6.765 11.518 -9.69 C 61.027 14.919 62.465 7.698 59.04 3.828 z" style="stroke: none; stroke-width: 1; stroke-dasharray: none; stroke-linecap: butt; stroke-linejoin: miter; stroke-miterlimit: 10; fill: rgb(254,147,211); fill-rule: nonzero; opacity: 1;" transform=" matrix(1 0 0 1 0 0) " stroke-linecap="round" />
	<path d="M 84.313 90 H 5.686 c -2.451 0 -4.445 -1.994 -4.445 -4.445 c 0 -2.45 1.994 -4.444 4.445 -4.444 h 78.627 c 2.451 0 4.445 1.994 4.445 4.444 C 88.758 88.005 86.764 90 84.313 90 z M 5.686 83.11 c -1.348 0 -2.445 1.097 -2.445 2.444 C 3.242 86.903 4.338 88 5.686 88 h 78.627 c 1.349 0 2.445 -1.097 2.445 -2.445 c 0 -1.348 -1.097 -2.444 -2.445 -2.444 H 5.686 z" style="stroke: none; stroke-width: 1; stroke-dasharray: none; stroke-linecap: butt; stroke-linejoin: miter; stroke-miterlimit: 10; fill: rgb(63,63,63); fill-rule: nonzero; opacity: 1;" transform=" matrix(1 0 0 1 0 0) " stroke-linecap="round" />
	<path d="M 82.141 83.11 H 6.997 c -0.552 0 -1 -0.447 -1 -1 V 60.544 c 0 -4.221 3.434 -7.654 7.655 -7.654 h 61.835 c 4.221 0 7.654 3.434 7.654 7.654 V 82.11 C 83.141 82.663 82.694 83.11 82.141 83.11 z M 7.997 81.11 h 73.144 V 60.544 c 0 -3.118 -2.536 -5.654 -5.654 -5.654 H 13.652 c -3.118 0 -5.655 2.536 -5.655 5.654 V 81.11 z" style="stroke: none; stroke-width: 1; stroke-dasharray: none; stroke-linecap: butt; stroke-linejoin: miter; stroke-miterlimit: 10; fill: rgb(63,63,63); fill-rule: nonzero; opacity: 1;" transform=" matrix(1 0 0 1 0 0) " stroke-linecap="round" />
	<path d="M 45 31.38 c -0.168 0 -0.336 -0.042 -0.487 -0.126 c -3.687 -2.058 -9.431 -6.892 -11.818 -9.948 c -5.037 -6.447 -6.081 -14.076 -2.484 -18.14 c 1.722 -1.945 4.14 -3.067 6.809 -3.16 c 2.8 -0.095 5.608 0.969 7.981 3.019 c 2.373 -2.05 5.191 -3.121 7.981 -3.019 c 2.669 0.093 5.086 1.214 6.808 3.16 c 3.598 4.063 2.554 11.693 -2.483 18.14 c -2.388 3.056 -8.131 7.89 -11.818 9.948 C 45.336 31.339 45.168 31.38 45 31.38 z M 37.37 2 c -0.094 0 -0.188 0.001 -0.282 0.005 c -2.115 0.073 -4.025 0.956 -5.38 2.486 c -2.911 3.289 -1.81 9.989 2.562 15.584 c 2.116 2.709 7.271 7.086 10.729 9.151 c 3.459 -2.064 8.613 -6.441 10.729 -9.151 c 4.372 -5.596 5.474 -12.295 2.562 -15.583 v 0 c -1.354 -1.53 -3.264 -2.413 -5.378 -2.486 c -2.555 -0.092 -5.096 1.011 -7.212 3.092 c -0.389 0.383 -1.014 0.383 -1.402 0 C 42.261 3.093 39.811 2 37.37 2 z" style="stroke: none; stroke-width: 1; stroke-dasharray: none; stroke-linecap: butt; stroke-linejoin: miter; stroke-miterlimit: 10; fill: rgb(63,63,63); fill-rule: nonzero; opacity: 1;" transform=" matrix(1 0 0 1 0 0) " stroke-linecap="round" />
	<path d="M 33.939 12.782 c -0.424 0 -0.818 -0.273 -0.953 -0.699 c -0.731 -2.315 -0.452 -4.432 0.767 -5.808 c 1.326 -1.499 3.404 -2.065 5.425 -1.479 c 0.53 0.154 0.835 0.709 0.682 1.239 c -0.154 0.53 -0.707 0.833 -1.239 0.682 c -1.27 -0.369 -2.561 -0.029 -3.37 0.883 c -0.742 0.837 -0.872 2.252 -0.357 3.88 c 0.167 0.527 -0.125 1.088 -0.652 1.255 C 34.141 12.766 34.039 12.782 33.939 12.782 z" style="stroke: none; stroke-width: 1; stroke-dasharray: none; stroke-linecap: butt; stroke-linejoin: miter; stroke-miterlimit: 10; fill: rgb(63,63,63); fill-rule: nonzero; opacity: 1;" transform=" matrix(1 0 0 1 0 0) " stroke-linecap="round" />
	<path d="M 37.054 70.925 c -0.184 0 -0.369 -0.051 -0.536 -0.156 c -4.695 -2.986 -9.26 -2.986 -13.955 0 c -0.467 0.295 -1.084 0.158 -1.38 -0.307 c -0.296 -0.467 -0.159 -1.085 0.307 -1.381 c 5.343 -3.398 10.76 -3.397 16.102 0 c 0.466 0.297 0.604 0.914 0.307 1.381 C 37.708 70.761 37.384 70.925 37.054 70.925 z" style="stroke: none; stroke-width: 1; stroke-dasharray: none; stroke-linecap: butt; stroke-linejoin: miter; stroke-miterlimit: 10; fill: rgb(63,63,63); fill-rule: nonzero; opacity: 1;" transform=" matrix(1 0 0 1 0 0) " stroke-linecap="round" />
	<path d="M 44.569 73.316 c -2.69 0 -5.38 -0.85 -8.051 -2.548 c -0.466 -0.296 -0.604 -0.914 -0.307 -1.38 c 0.296 -0.467 0.915 -0.603 1.38 -0.308 c 4.696 2.987 9.26 2.985 13.956 0 c 0.465 -0.296 1.084 -0.158 1.38 0.308 c 0.297 0.466 0.159 1.084 -0.308 1.38 C 49.949 72.467 47.26 73.316 44.569 73.316 z" style="stroke: none; stroke-width: 1; stroke-dasharray: none; stroke-linecap: butt; stroke-linejoin: miter; stroke-miterlimit: 10; fill: rgb(63,63,63); fill-rule: nonzero; opacity: 1;" transform=" matrix(1 0 0 1 0 0) " stroke-linecap="round" />
	<path d="M 52.085 70.925 c -0.331 0 -0.654 -0.164 -0.845 -0.463 c -0.297 -0.467 -0.159 -1.085 0.307 -1.381 c 5.345 -3.399 10.76 -3.398 16.102 0 c 0.466 0.297 0.604 0.914 0.307 1.381 c -0.296 0.465 -0.913 0.603 -1.381 0.307 c -4.694 -2.986 -9.26 -2.986 -13.954 0 C 52.454 70.874 52.268 70.925 52.085 70.925 z" style="stroke: none; stroke-width: 1; stroke-dasharray: none; stroke-linecap: butt; stroke-linejoin: miter; stroke-miterlimit: 10; fill: rgb(63,63,63); fill-rule: nonzero; opacity: 1;" transform=" matrix(1 0 0 1 0 0) " stroke-linecap="round" />
	<path d="M 74.627 73.316 c -2.69 0 -5.38 -0.85 -8.051 -2.548 c -0.467 -0.296 -0.604 -0.914 -0.308 -1.38 c 0.296 -0.466 0.914 -0.604 1.38 -0.308 c 4.697 2.986 9.26 2.986 13.957 0 c 0.465 -0.296 1.084 -0.158 1.38 0.308 c 0.297 0.466 0.159 1.084 -0.308 1.38 C 80.007 72.467 77.317 73.316 74.627 73.316 z" style="stroke: none; stroke-width: 1; stroke-dasharray: none; stroke-linecap: butt; stroke-linejoin: miter; stroke-miterlimit: 10; fill: rgb(63,63,63); fill-rule: nonzero; opacity: 1;" transform=" matrix(1 0 0 1 0 0) " stroke-linecap="round" />
	<path d="M 14.512 73.316 c -2.69 0 -5.38 -0.85 -8.051 -2.548 c -0.466 -0.296 -0.604 -0.914 -0.307 -1.38 c 0.296 -0.467 0.914 -0.603 1.38 -0.308 c 4.695 2.986 9.26 2.986 13.955 0 c 0.467 -0.295 1.084 -0.159 1.38 0.308 c 0.296 0.466 0.159 1.084 -0.307 1.38 C 19.892 72.467 17.202 73.316 14.512 73.316 z" style="stroke: none; stroke-width: 1; stroke-dasharray: none; stroke-linecap: butt; stroke-linejoin: miter; stroke-miterlimit: 10; fill: rgb(63,63,63); fill-rule: nonzero; opacity: 1;" transform=" matrix(1 0 0 1 0 0) " stroke-linecap="round" />
	<path d="M 37.054 42.534 c -0.184 0 -0.369 -0.05 -0.536 -0.156 c -4.141 -2.634 -8.156 -2.941 -12.276 -0.942 c -0.497 0.241 -1.095 0.034 -1.336 -0.463 c -0.241 -0.497 -0.034 -1.095 0.463 -1.336 c 4.728 -2.296 9.513 -1.942 14.222 1.054 c 0.466 0.296 0.604 0.915 0.307 1.38 C 37.708 42.371 37.384 42.534 37.054 42.534 z" style="stroke: none; stroke-width: 1; stroke-dasharray: none; stroke-linecap: butt; stroke-linejoin: miter; stroke-miterlimit: 10; fill: rgb(63,63,63); fill-rule: nonzero; opacity: 1;" transform=" matrix(1 0 0 1 0 0) " stroke-linecap="round" />
	<path d="M 44.569 44.926 c -2.69 0 -5.38 -0.85 -8.051 -2.548 c -0.466 -0.296 -0.604 -0.915 -0.307 -1.38 c 0.296 -0.466 0.915 -0.604 1.38 -0.307 c 4.696 2.986 9.261 2.986 13.955 0 c 0.469 -0.297 1.085 -0.159 1.381 0.307 c 0.297 0.466 0.159 1.084 -0.307 1.38 C 49.949 44.077 47.26 44.926 44.569 44.926 z" style="stroke: none; stroke-width: 1; stroke-dasharray: none; stroke-linecap: butt; stroke-linejoin: miter; stroke-miterlimit: 10; fill: rgb(63,63,63); fill-rule: nonzero; opacity: 1;" transform=" matrix(1 0 0 1 0 0) " stroke-linecap="round" />
	<path d="M 52.085 42.534 c -0.331 0 -0.654 -0.164 -0.845 -0.463 c -0.297 -0.466 -0.159 -1.084 0.307 -1.38 c 5.014 -3.189 10.106 -3.385 15.134 -0.578 c 0.482 0.269 0.655 0.878 0.386 1.36 c -0.27 0.482 -0.879 0.655 -1.36 0.386 c -4.395 -2.454 -8.678 -2.285 -13.085 0.52 C 52.454 42.484 52.268 42.534 52.085 42.534 z" style="stroke: none; stroke-width: 1; stroke-dasharray: none; stroke-linecap: butt; stroke-linejoin: miter; stroke-miterlimit: 10; fill: rgb(63,63,63); fill-rule: nonzero; opacity: 1;" transform=" matrix(1 0 0 1 0 0) " stroke-linecap="round" />
	<path d="M 66.193 54.89 H 23.807 c -0.552 0 -1 -0.447 -1 -1 V 32.324 c 0 -4.221 3.434 -7.655 7.655 -7.655 h 8.041 c 0.552 0 1 0.448 1 1 s -0.448 1 -1 1 h -8.041 c -3.118 0 -5.655 2.537 -5.655 5.655 V 52.89 h 40.386 V 32.324 c 0 -3.118 -2.536 -5.655 -5.654 -5.655 h -8.043 c -0.553 0 -1 -0.448 -1 -1 s 0.447 -1 1 -1 h 8.043 c 4.221 0 7.654 3.434 7.654 7.655 V 53.89 C 67.193 54.442 66.746 54.89 66.193 54.89 z" style="stroke: none; stroke-width: 1; stroke-dasharray: none; stroke-linecap: butt; stroke-linejoin: miter; stroke-miterlimit: 10; fill: rgb(63,63,63); fill-rule: nonzero; opacity: 1;" transform=" matrix(1 0 0 1 0 0) " stroke-linecap="round" />
	<path d="M 45 65.165 c -0.552 0 -1 -0.447 -1 -1 V 62.74 c 0 -0.553 0.448 -1 1 -1 s 1 0.447 1 1 v 1.425 C 46 64.718 45.552 65.165 45 65.165 z" style="stroke: none; stroke-width: 1; stroke-dasharray: none; stroke-linecap: butt; stroke-linejoin: miter; stroke-miterlimit: 10; fill: rgb(63,63,63); fill-rule: nonzero; opacity: 1;" transform=" matrix(1 0 0 1 0 0) " stroke-linecap="round" />
	<path d="M 15.108 65.165 c -0.552 0 -1 -0.447 -1 -1 V 62.74 c 0 -0.553 0.448 -1 1 -1 c 0.552 0 1 0.447 1 1 v 1.425 C 16.108 64.718 15.66 65.165 15.108 65.165 z" style="stroke: none; stroke-width: 1; stroke-dasharray: none; stroke-linecap: butt; stroke-linejoin: miter; stroke-miterlimit: 10; fill: rgb(63,63,63); fill-rule: nonzero; opacity: 1;" transform=" matrix(1 0 0 1 0 0) " stroke-linecap="round" />
	<path d="M 74.891 65.165 c -0.553 0 -1 -0.447 -1 -1 V 62.74 c 0 -0.553 0.447 -1 1 -1 c 0.553 0 1 0.447 1 1 v 1.425 C 75.891 64.718 75.444 65.165 74.891 65.165 z" style="stroke: none; stroke-width: 1; stroke-dasharray: none; stroke-linecap: butt; stroke-linejoin: miter; stroke-miterlimit: 10; fill: rgb(63,63,63); fill-rule: nonzero; opacity: 1;" transform=" matrix(1 0 0 1 0 0) " stroke-linecap="round" />
	<path d="M 30.054 62.98 c -0.552 0 -1 -0.447 -1 -1 v -1.425 c 0 -0.553 0.448 -1 1 -1 s 1 0.447 1 1 v 1.425 C 31.054 62.533 30.607 62.98 30.054 62.98 z" style="stroke: none; stroke-width: 1; stroke-dasharray: none; stroke-linecap: butt; stroke-linejoin: miter; stroke-miterlimit: 10; fill: rgb(63,63,63); fill-rule: nonzero; opacity: 1;" transform=" matrix(1 0 0 1 0 0) " stroke-linecap="round" />
	<path d="M 59.946 62.98 c -0.553 0 -1 -0.447 -1 -1 v -1.425 c 0 -0.553 0.447 -1 1 -1 c 0.553 0 1 0.447 1 1 v 1.425 C 60.946 62.533 60.499 62.98 59.946 62.98 z" style="stroke: none; stroke-width: 1; stroke-dasharray: none; stroke-linecap: butt; stroke-linejoin: miter; stroke-miterlimit: 10; fill: rgb(63,63,63); fill-rule: nonzero; opacity: 1;" transform=" matrix(1 0 0 1 0 0) " stroke-linecap="round" />
	<path d="M 30.054 34.591 c -0.552 0 -1 -0.448 -1 -1 v -1.425 c 0 -0.552 0.448 -1 1 -1 s 1 0.448 1 1 v 1.425 C 31.054 34.143 30.607 34.591 30.054 34.591 z" style="stroke: none; stroke-width: 1; stroke-dasharray: none; stroke-linecap: butt; stroke-linejoin: miter; stroke-miterlimit: 10; fill: rgb(63,63,63); fill-rule: nonzero; opacity: 1;" transform=" matrix(1 0 0 1 0 0) " stroke-linecap="round" />
	<path d="M 59.946 34.591 c -0.553 0 -1 -0.448 -1 -1 v -1.425 c 0 -0.552 0.447 -1 1 -1 c 0.553 0 1 0.448 1 1 v 1.425 C 60.946 34.143 60.499 34.591 59.946 34.591 z" style="stroke: none; stroke-width: 1; stroke-dasharray: none; stroke-linecap: butt; stroke-linejoin: miter; stroke-miterlimit: 10; fill: rgb(63,63,63); fill-rule: nonzero; opacity: 1;" transform=" matrix(1 0 0 1 0 0) " stroke-linecap="round" />
	<path d="M 45 38.959 c -0.552 0 -1 -0.448 -1 -1 v -1.425 c 0 -0.552 0.448 -1 1 -1 s 1 0.448 1 1 v 1.425 C 46 38.511 45.552 38.959 45 38.959 z" style="stroke: none; stroke-width: 1; stroke-dasharray: none; stroke-linecap: butt; stroke-linejoin: miter; stroke-miterlimit: 10; fill: rgb(63,63,63); fill-rule: nonzero; opacity: 1;" transform=" matrix(1 0 0 1 0 0) " stroke-linecap="round" />
</g>
</g>
</svg>